<svg xmlns="http://www.w3.org/2000/svg" xmlns:xlink="http://www.w3.org/1999/xlink" width="100" zoomAndPan="magnify" viewBox="0 0 75 74.999997" height="100" preserveAspectRatio="xMidYMid meet" version="1.0"><defs><clipPath id="613997a75e"><path d="M 0 0.328125 L 75 0.328125 L 75 74.578125 L 0 74.578125 Z M 0 0.328125 " clip-rule="nonzero"/></clipPath></defs><rect x="-7.5" width="90" fill="#ffffff" y="-7.5" height="89.999996" fill-opacity="1"/><rect x="-7.5" width="90" fill="#ffffff" y="-7.5" height="89.999996" fill-opacity="1"/><rect x="-7.5" width="90" fill="#ffffff" y="-7.5" height="89.999996" fill-opacity="1"/><g clip-path="url(#613997a75e)"><path fill="#000000" d="M 41.589844 38.03125 L 49.128906 30.097656 C 50.171875 30.5625 51.332031 30.851562 52.492188 30.851562 C 54.695312 30.851562 56.722656 29.980469 58.230469 28.476562 L 59.042969 27.664062 L 74.410156 12.316406 C 74.875 11.855469 74.875 11.160156 74.410156 10.695312 C 73.945312 10.230469 73.25 10.230469 72.789062 10.695312 L 57.535156 25.871094 C 57.1875 25.871094 56.375 25.578125 55.273438 24.828125 L 71.164062 8.957031 C 71.628906 8.496094 71.628906 7.800781 71.164062 7.335938 C 70.699219 6.871094 70.003906 6.871094 69.539062 7.335938 L 53.417969 23.4375 C 53.128906 23.207031 52.839844 22.914062 52.546875 22.625 C 52.257812 22.335938 51.96875 22.046875 51.738281 21.757812 L 67.859375 5.65625 C 68.320312 5.191406 68.320312 4.5 67.859375 4.035156 C 67.394531 3.570312 66.699219 3.570312 66.234375 4.035156 L 50.34375 19.902344 C 49.589844 18.746094 49.300781 17.933594 49.300781 17.644531 L 64.550781 2.414062 C 65.015625 1.949219 65.015625 1.253906 64.550781 0.792969 C 64.089844 0.328125 63.394531 0.328125 62.929688 0.792969 L 47.5625 16.082031 L 46.75 16.890625 C 45.183594 18.457031 44.371094 20.484375 44.371094 22.625 C 44.371094 23.554688 44.371094 24.421875 44.660156 25.234375 L 39.441406 30.097656 L 39.441406 29.980469 L 39.617188 29.980469 C 39.617188 29.925781 39.675781 29.925781 39.675781 29.867188 C 39.675781 29.808594 39.734375 29.808594 39.675781 29.75 L 39.675781 29.691406 C 39.675781 29.632812 39.617188 29.578125 39.617188 29.578125 C 39.382812 29.402344 19.898438 11.273438 6.679688 3.28125 C 4.011719 1.71875 2.386719 2.472656 1.457031 3.398438 C 0.878906 3.976562 0.589844 4.671875 0.589844 5.484375 C 0.589844 6.234375 0.878906 6.988281 1.457031 7.566406 L 31.847656 37.917969 L 1.863281 66.933594 C 0.125 68.671875 0.0664062 71.566406 1.863281 73.304688 C 2.734375 74.171875 3.894531 74.578125 4.996094 74.578125 C 6.15625 74.578125 7.316406 74.113281 8.242188 73.246094 L 36.949219 42.957031 L 67.21875 73.246094 C 68.089844 74.113281 69.191406 74.578125 70.410156 74.578125 C 71.628906 74.578125 72.730469 74.113281 73.597656 73.246094 C 74.46875 72.378906 74.933594 71.277344 74.875 70.0625 C 74.875 68.84375 74.410156 67.742188 73.542969 66.875 Z M 41.589844 38.03125 " fill-opacity="1" fill-rule="nonzero"/></g></svg>